0
SECTION
2
HEADER
9
$INSUNITS
70
4
9
$ACADVER
1
AC1014
9
$HANDSEED
5
FFFF
0
ENDSEC
0
SECTION
2
TABLES
0
TABLE
2
VPORT
5
8
100
AcDbSymbolTable
0
ENDTAB
0
TABLE
2
LTYPE
5
5
100
AcDbSymbolTable
0
LTYPE
5
14
100
AcDbSymbolTableRecord
100
AcDbLinetypeTableRecord
2
BYBLOCK
70
0
0
LTYPE
5
15
100
AcDbSymbolTableRecord
100
AcDbLinetypeTableRecord
2
BYLAYER
70
0
0
ENDTAB
0
TABLE
2
LAYER
5
2
100
AcDbSymbolTable
70
2
0
LAYER
5
50
100
AcDbSymbolTableRecord
100
AcDbLayerTableRecord
2
0
70
0
6
CONTINUOUS
0
ENDTAB
0
TABLE
2
STYLE
5
3
100
AcDbSymbolTable
70
1
0
STYLE
5
11
100
AcDbSymbolTableRecord
100
AcDbTextStyleTableRecord
2
STANDARD
70
0
0
ENDTAB
0
TABLE
2
VIEW
5
6
100
AcDbSymbolTable
70
0
0
ENDTAB
0
TABLE
2
UCS
5
7
100
AcDbSymbolTable
70
0
0
ENDTAB
0
TABLE
2
APPID
5
9
100
AcDbSymbolTable
70
2
0
APPID
5
12
100
AcDbSymbolTableRecord
100
AcDbRegAppTableRecord
2
ACAD
70
0
0
ENDTAB
0
TABLE
2
DIMSTYLE
5
A
100
AcDbSymbolTable
70
1
0
ENDTAB
0
TABLE
2
BLOCK_RECORD
5
1
100
AcDbSymbolTable
70
1
0
BLOCK_RECORD
5
1F
100
AcDbSymbolTableRecord
100
AcDbBlockTableRecord
2
*MODEL_SPACE
0
BLOCK_RECORD
5
1B
100
AcDbSymbolTableRecord
100
AcDbBlockTableRecord
2
*PAPER_SPACE
0
ENDTAB
0
ENDSEC
0
SECTION
2
BLOCKS
0
BLOCK
5
20
100
AcDbEntity
100
AcDbBlockBegin
2
*MODEL_SPACE
0
ENDBLK
5
21
100
AcDbEntity
100
AcDbBlockEnd
0
BLOCK
5
1C
100
AcDbEntity
100
AcDbBlockBegin
2
*PAPER_SPACE
0
ENDBLK
5
1D
100
AcDbEntity
100
AcDbBlockEnd
0
ENDSEC
0
SECTION
2
ENTITIES
0
CIRCLE
5
100
100
AcDbEntity
8
0
100
AcDbCircle
10
-232.14673882663408
20
70.655824430138608
30
0
40
1.25
210
0
220
-0
230
1
0
CIRCLE
5
101
100
AcDbEntity
8
0
100
AcDbCircle
10
-97.504783521736158
20
39.817513664751594
30
0
40
1.25
210
0
220
-0
230
1
0
CIRCLE
5
102
100
AcDbEntity
8
0
100
AcDbCircle
10
-46.510889026951574
20
89.36421600904724
30
0
40
1.25
210
0
220
-0
230
1
0
CIRCLE
5
103
100
AcDbEntity
8
0
100
AcDbCircle
10
-64.603060378829142
20
16.83112735437075
30
0
40
1.25
210
0
220
-0
230
1
0
CIRCLE
5
104
100
AcDbEntity
8
0
100
AcDbCircle
10
-84.104083584984423
20
93.838797920478996
30
0
40
1.25
210
0
220
-0
230
1
0
CIRCLE
5
105
100
AcDbEntity
8
0
100
AcDbCircle
10
-138.17172266450274
20
40.033439338443266
30
0
40
1.25
210
0
220
-0
230
1
0
CIRCLE
5
106
100
AcDbEntity
8
0
100
AcDbCircle
10
-219.04804888874446
20
18.081489262998296
30
0
40
1.25
210
0
220
-0
230
1
0
CIRCLE
5
107
100
AcDbEntity
8
0
100
AcDbCircle
10
-189.00302714968601
20
89.506393438325375
30
0
40
1.25
210
0
220
-0
230
1
0
CIRCLE
5
108
100
AcDbEntity
8
0
100
AcDbCircle
10
-128.49177502916547
20
108.72981856857051
30
0
40
1.25
210
0
220
-0
230
1
0
CIRCLE
5
109
100
AcDbEntity
8
0
100
AcDbCircle
10
-3.2098890861972822
20
69.440258553899184
30
0
40
1.2500000000000004
210
0
220
-0
230
1
0
CIRCLE
5
110
100
AcDbEntity
8
0
100
AcDbCircle
10
-17.018660887164248
20
17.745246149255685
30
0
40
1.25
210
0
220
-0
230
1
0
CIRCLE
5
111
100
AcDbEntity
8
0
100
AcDbCircle
10
-105.99205384631776
20
108.7703907875557
30
0
40
1.25
210
0
220
-0
230
1
0
CIRCLE
5
112
100
AcDbEntity
8
0
100
AcDbCircle
10
-150.99801907707067
20
94.193978772332827
30
0
40
1.25
210
0
220
-0
230
1
0
CIRCLE
5
113
100
AcDbEntity
8
0
100
AcDbCircle
10
-171.2243002567181
20
17.017803437639067
30
0
40
1.25
210
0
220
-0
230
1
0
LWPOLYLINE
5
114
100
AcDbEntity
8
0
100
AcDbPolyline
90
102
70
1
43
0.0
10
-125.62366062724024
20
32.6535800747954
42
0.41526274076568587
10
-124.62366703826147
20
31.649999292567387
10
-122.35125730251455
20
31.649999292567372
10
-122.35125730251455
20
30.11178968757941
10
-113.41125222250456
20
30.11178968757941
10
-113.41125222250456
20
31.650001503294334
10
-111.14112351527299
20
31.649999292567372
42
0.41652025808570253
10
-110.14115447666981
20
32.657868335394298
10
-110.19867765266787
20
39.967702106200143
10
-105.2462579064297
20
39.969134883261162
42
0.032049096150282695
10
-104.75511962978874
20
39.812663701739119
10
-92.141274685434652
20
36.667678715613221
42
0.13256561662748365
10
-90.044216568224726
20
36.708048274350801
10
-91.506996284386801
20
30.841159685434643
42
0.41421356654632707
10
-88.575291629788751
20
25.961983701739126
10
-75.961446430150417
20
22.816999651963719
42
0.13256550371129211
10
-73.864390031146911
20
22.857368849175618
10
-74.175016348036294
20
21.611514430150407
42
0.41421354740098199
10
-71.243311629788678
20
16.732338701739121
10
-58.629467493799901
20
13.587354667833313
42
0.41421355217445421
10
-53.750291701739108
20
16.519059370211345
10
-53.439665287922146
20
17.764913683083009
42
0.13256567092407592
10
-51.607024629788683
20
16.744759701739113
10
-38.993180749084168
20
13.599774731482823
42
0.4142135713198058
10
-34.11400470173912
20
16.531479370211343
10
-33.227301795961239
20
20.08785023192668
42
0.13256553937909762
10
-31.39466262978868
20
19.067697701739121
10
-18.780818749084155
20
15.922712731482825
42
0.41421357131980524
10
-13.901642701739112
20
18.854417370211344
10
-10.756657715613215
20
31.468262314565358
10
-9.2930297017391101
20
37.338552370211367
10
-6.148045651963713
20
49.952397569849587
10
-4.6844177017391173
20
55.822685370211325
10
-1.5394336519637113
20
68.436530569849594
42
0.41421354740098293
10
-4.4711383702113334
20
73.315706298260906
10
-17.084982506200099
20
76.460690332166692
42
0.41421355217445294
10
-21.964158298260884
20
73.528985629788679
10
-22.850861059949636
20
69.972615627925038
42
0.132565552083316
10
-24.683500370211323
20
70.992768298260884
10
-37.297345569849597
20
74.137752348036287
42
0.13256555633402092
10
-39.394402768365126
20
74.097382918458948
10
-36.779470667833316
20
84.585304506200103
42
0.41421355217445344
10
-39.711175370211343
20
89.464480298260881
10
-52.325019250915844
20
92.609465268517198
42
0.41421357131979997
10
-57.204195298260892
20
89.677760629788736
10
-59.819128107781054
20
79.189838701797981
42
0.13256563603524185
10
-61.651768370211329
20
80.209992298260886
10
-74.265613314565357
20
83.354977284386806
42
0.13256544755040586
10
-76.36266886293933
20
83.314608472240351
10
-74.89988973148283
20
89.181494250915847
42
0.41421357131980457
10
-77.831594370211334
20
94.060670298260888
10
-90.445439314565377
20
97.205655284386808
10
-96.154999999999987
20
98.629208733606987
10
-96.155000000000001
20
106.51250000000002
42
0.41421356237309509
10
-100.18000000000001
20
110.53750000000001
10
-135.08750000000001
20
110.53750000000001
42
0.41421356237309509
10
-139.11250000000001
20
106.51250000000002
10
-139.11250000000001
20
98.870002392564146
10
-145.19000062978859
20
97.354711298260924
10
-157.80384449379991
20
94.209727332166707
42
0.41421357257173169
10
-160.73554929826093
20
89.33055137021141
10
-159.27277014780091
20
83.46366318472802
42
0.13256550903737419
10
-161.36982662978869
20
83.504032298260881
10
-173.98367074908418
20
80.359047268517187
42
0.13256568726554283
10
-175.81631156139815
20
79.338893050920319
10
-178.43124365196374
20
89.826815430150404
42
0.41421357734519193
10
-183.31041962978847
20
92.758520298260947
10
-195.92426468543468
20
89.613535284386799
42
0.41421355819985095
10
-198.85596929826096
20
84.734359370211436
10
-196.24103633521631
20
74.246437657928922
42
0.13256562833909238
10
-198.3380946297888
20
74.286807298260854
10
-210.95193849379993
20
71.14182333216668
42
0.13256557105284517
10
-212.78457805473292
20
70.121670516379055
10
-213.69432366783337
20
73.770461493799942
42
0.41421357257174291
10
-218.57349962978878
20
76.702166298260863
10
-231.18734443015043
20
73.557182348036292
42
0.40493939356506964
10
-234.14800680850138
20
68.802543033644213
10
-234.1190492982609
20
68.678006370211307
10
-230.97406428438686
20
56.064161314565368
10
-229.51043829826091
20
50.193873370211321
10
-226.36545434803628
20
37.580028569849595
10
-224.90182629826086
20
31.709738370211277
10
-221.75684128438678
20
19.095893314565352
42
0.41421355819986255
10
-216.87766537021128
20
16.164188701739125
10
-204.26382125091584
20
19.309173731482826
42
0.13256569351107603
10
-202.43118036776616
20
20.32932801797817
10
-201.5214342685172
20
16.680536250915846
42
0.41421355342639338
10
-196.64225837021124
20
13.748831701739144
10
-184.02841425091583
20
16.893816731482822
42
0.13256556381654258
10
-182.1957748387394
20
17.913969587235087
10
-181.88514833216669
20
16.668114506200105
42
0.41421357257174224
10
-177.00597237021128
20
13.736409701739156
10
-164.39212756984958
20
16.881393651963712
42
0.41421357734521103
10
-161.46042270173911
20
21.760569629788726
10
-161.77104934414476
20
23.006424958248125
42
0.13256554141653343
10
-159.67399237021124
20
22.966055701739126
10
-147.06014825091586
20
26.111040731482827
42
0.41421355342638239
10
-144.12844370173912
20
30.990216629788627
10
-145.5912225958607
20
36.857103322039663
42
0.13256562380267567
10
-143.49416437021125
20
36.816733701739139
10
-130.88032025091587
20
39.961718731482833
10
-125.59748613365757
20
39.963247100225438
0
LWPOLYLINE
5
115
100
AcDbEntity
8
0
100
AcDbPolyline
90
24
70
1
43
0.0
10
-112.13775647125132
20
72.358099864625117
10
-111.99305647125136
20
72.298099864625115
10
-111.86875647125133
20
72.20209986462514
10
-111.77345647125129
20
72.078099864625131
10
-111.71355647125132
20
71.933099864625106
10
-111.69305647125131
20
71.778099864625176
10
-111.71355647125132
20
71.623099864625118
10
-111.77345647125129
20
71.478099864625136
10
-111.86875647125133
20
71.354099864625141
10
-111.99305647125136
20
71.258099864625137
10
-112.13775647125132
20
71.198099864625163
10
-112.2930564712513
20
71.178099864625167
10
-112.44835647125132
20
71.198099864625163
10
-112.59305647125132
20
71.258099864625137
10
-112.71735647125134
20
71.354099864625141
10
-112.81265647125127
20
71.478099864625136
10
-112.87265647125125
20
71.623099864625118
10
-112.89305647125127
20
71.778099864625176
10
-112.87265647125125
20
71.933099864625106
10
-112.81265647125127
20
72.078099864625131
10
-112.71735647125134
20
72.20209986462514
10
-112.59305647125132
20
72.298099864625115
10
-112.44835647125132
20
72.358099864625117
10
-112.2930564712513
20
72.378099864625099
0
LWPOLYLINE
5
116
100
AcDbEntity
8
0
100
AcDbPolyline
90
24
70
1
43
0.0
10
-112.81265647125127
20
79.19809986462505
10
-112.71735647125134
20
79.322099864625045
10
-112.59305647125132
20
79.418099864625049
10
-112.44835647125132
20
79.478099864625037
10
-112.2930564712513
20
79.498099864625061
10
-112.13775647125132
20
79.478099864625037
10
-111.99305647125136
20
79.418099864625049
10
-111.86875647125133
20
79.322099864625045
10
-111.77345647125129
20
79.19809986462505
10
-111.71355647125132
20
79.05309986462504
10
-111.69305647125131
20
78.898099864625038
10
-111.71355647125132
20
78.743099864625037
10
-111.77345647125129
20
78.598099864625041
10
-111.86875647125133
20
78.474099864624961
10
-111.99305647125136
20
78.378099864625042
10
-112.13775647125132
20
78.31809986462504
10
-112.2930564712513
20
78.298099864625044
10
-112.44835647125132
20
78.31809986462504
10
-112.59305647125132
20
78.378099864625042
10
-112.71735647125134
20
78.474099864624961
10
-112.81265647125127
20
78.598099864625041
10
-112.87265647125125
20
78.743099864625037
10
-112.89305647125127
20
78.898099864625038
10
-112.87265647125125
20
79.05309986462504
0
LWPOLYLINE
5
117
100
AcDbEntity
8
0
100
AcDbPolyline
90
24
70
1
43
0.0
10
-122.3930564712512
20
76.228099864625037
10
-122.41355647125118
20
76.073099864625021
10
-122.47345647125118
20
75.92809986462504
10
-122.56875647125121
20
75.804099864625073
10
-122.69305647125121
20
75.708099864625083
10
-122.8377564712512
20
75.648099864625081
10
-122.99305647125118
20
75.628099864625085
10
-123.14835647125116
20
75.648099864625081
10
-123.29305647125118
20
75.708099864625083
10
-123.4173564712512
20
75.804099864625073
10
-123.51265647125118
20
75.92809986462504
10
-123.57265647125118
20
76.073099864625021
10
-123.59305647125119
20
76.228099864625037
10
-123.57265647125118
20
76.38309986462508
10
-123.51265647125118
20
76.528099864625062
10
-123.4173564712512
20
76.652099864625058
10
-123.29305647125118
20
76.748099864625047
10
-123.14835647125116
20
76.808099864625049
10
-122.99305647125118
20
76.828099864625102
10
-122.8377564712512
20
76.808099864625049
10
-122.69305647125121
20
76.748099864625047
10
-122.56875647125121
20
76.652099864625058
10
-122.47345647125118
20
76.528099864625062
10
-122.41355647125118
20
76.38309986462508
0
LWPOLYLINE
5
118
100
AcDbEntity
8
0
100
AcDbPolyline
90
24
70
1
43
0.0
10
-122.99305647125118
20
69.70809986462514
10
-122.8377564712512
20
69.688099864625116
10
-122.69305647125121
20
69.628099864625113
10
-122.56875647125121
20
69.532099864625167
10
-122.47345647125118
20
69.408099864625129
10
-122.41355647125118
20
69.263099864625133
10
-122.3930564712512
20
69.108099864625117
10
-122.41355647125118
20
68.953099864625159
10
-122.47345647125118
20
68.808099864625106
10
-122.56875647125121
20
68.684099864625125
10
-122.69305647125121
20
68.588099864625121
10
-122.8377564712512
20
68.528099864625119
10
-122.99305647125118
20
68.508099864625166
10
-123.1483564712512
20
68.528099864625119
10
-123.29305647125119
20
68.588099864625121
10
-123.4173564712512
20
68.684099864625125
10
-123.51265647125118
20
68.808099864625106
10
-123.57265647125118
20
68.953099864625159
10
-123.59305647125119
20
69.108099864625117
10
-123.57265647125118
20
69.263099864625133
10
-123.51265647125118
20
69.408099864625129
10
-123.4173564712512
20
69.532099864625167
10
-123.29305647125119
20
69.628099864625113
10
-123.1483564712512
20
69.688099864625116
0
LWPOLYLINE
5
119
100
AcDbEntity
8
0
100
AcDbPolyline
90
4
70
1
43
0.0
10
-123.59305647125119
20
67.928099864625139
10
-122.3930564712512
20
67.928099864625139
10
-122.3930564712512
20
66.728099864625122
10
-123.59305647125119
20
66.728099864625122
0
LWPOLYLINE
5
120
100
AcDbEntity
8
0
100
AcDbPolyline
90
24
70
1
43
0.0
10
-123.51265647125118
20
74.148099864625095
10
-123.57265647125118
20
74.293099864625077
10
-123.59305647125119
20
74.448099864625092
10
-123.57265647125118
20
74.603099864625079
10
-123.51265647125118
20
74.74809986462509
10
-123.4173564712512
20
74.872099864625113
10
-123.29305647125119
20
74.968099864625103
10
-123.1483564712512
20
75.028099864625077
10
-122.99305647125118
20
75.048099864625087
10
-122.8377564712512
20
75.028099864625077
10
-122.69305647125121
20
74.968099864625103
10
-122.56875647125121
20
74.872099864625113
10
-122.47345647125118
20
74.74809986462509
10
-122.41355647125118
20
74.603099864625079
10
-122.3930564712512
20
74.448099864625092
10
-122.41355647125118
20
74.293099864625077
10
-122.47345647125118
20
74.148099864625095
10
-122.56875647125121
20
74.0240998646251
10
-122.69305647125121
20
73.928099864625096
10
-122.8377564712512
20
73.86809986462508
10
-122.99305647125118
20
73.848099864625084
10
-123.1483564712512
20
73.86809986462508
10
-123.29305647125119
20
73.928099864625096
10
-123.4173564712512
20
74.0240998646251
0
LWPOLYLINE
5
121
100
AcDbEntity
8
0
100
AcDbPolyline
90
24
70
1
43
0.0
10
-112.87265647125125
20
80.523099864625053
10
-112.89305647125127
20
80.678099864625054
10
-112.87265647125125
20
80.833099864625041
10
-112.81265647125127
20
80.978099864625023
10
-112.71735647125134
20
81.102099864625018
10
-112.59305647125132
20
81.198099864625064
10
-112.44835647125132
20
81.258099864625052
10
-112.2930564712513
20
81.278099864625062
10
-112.13775647125132
20
81.258099864625052
10
-111.99305647125136
20
81.198099864625064
10
-111.86875647125133
20
81.102099864625018
10
-111.77345647125129
20
80.978099864625023
10
-111.71355647125132
20
80.833099864625041
10
-111.69305647125131
20
80.678099864625054
10
-111.71355647125132
20
80.523099864625053
10
-111.77345647125129
20
80.378099864625057
10
-111.86875647125133
20
80.254099864625061
10
-111.99305647125136
20
80.158099864625058
10
-112.13775647125132
20
80.098099864625055
10
-112.2930564712513
20
80.078099864625102
10
-112.44835647125132
20
80.098099864625055
10
-112.59305647125132
20
80.158099864625058
10
-112.71735647125134
20
80.254099864625061
10
-112.81265647125127
20
80.378099864625057
0
LWPOLYLINE
5
122
100
AcDbEntity
8
0
100
AcDbPolyline
90
24
70
1
43
0.0
10
-112.59305647125132
20
74.078099864625116
10
-112.44835647125132
20
74.13809986462509
10
-112.2930564712513
20
74.158099864625129
10
-112.13775647125132
20
74.13809986462509
10
-111.99305647125136
20
74.078099864625116
10
-111.86875647125133
20
73.982099864625113
10
-111.77345647125129
20
73.858099864625075
10
-111.71355647125132
20
73.713099864625079
10
-111.69305647125131
20
73.558099864625092
10
-111.71355647125132
20
73.403099864625091
10
-111.77345647125129
20
73.258099864625137
10
-111.86875647125133
20
73.134099864625114
10
-111.99305647125136
20
73.038099864625167
10
-112.13775647125132
20
72.978099864625094
10
-112.2930564712513
20
72.958099864625098
10
-112.44835647125132
20
72.978099864625094
10
-112.59305647125132
20
73.038099864625167
10
-112.71735647125134
20
73.134099864625114
10
-112.81265647125127
20
73.258099864625137
10
-112.87265647125125
20
73.403099864625091
10
-112.89305647125127
20
73.558099864625092
10
-112.87265647125125
20
73.713099864625079
10
-112.81265647125127
20
73.858099864625075
10
-112.71735647125134
20
73.982099864625113
0
LWPOLYLINE
5
123
100
AcDbEntity
8
0
100
AcDbPolyline
90
24
70
1
43
0.0
10
-112.81265647125127
20
70.298099864625115
10
-112.71735647125134
20
70.422099864625167
10
-112.59305647125132
20
70.518099864625128
10
-112.44835647125132
20
70.578099864625131
10
-112.2930564712513
20
70.598099864625127
10
-112.13775647125132
20
70.578099864625131
10
-111.99305647125136
20
70.518099864625128
10
-111.86875647125133
20
70.422099864625167
10
-111.77345647125129
20
70.298099864625115
10
-111.71355647125132
20
70.153099864625133
10
-111.69305647125131
20
69.998099864625118
10
-111.71355647125132
20
69.843099864625131
10
-111.77345647125129
20
69.698099864625163
10
-111.86875647125133
20
69.57409986462514
10
-111.99305647125136
20
69.478099864625136
10
-112.13775647125132
20
69.418099864625177
10
-112.2930564712513
20
69.398099864625152
10
-112.44835647125132
20
69.418099864625177
10
-112.59305647125132
20
69.478099864625136
10
-112.71735647125134
20
69.57409986462514
10
-112.81265647125127
20
69.698099864625163
10
-112.87265647125125
20
69.843099864625131
10
-112.89305647125127
20
69.998099864625118
10
-112.87265647125125
20
70.153099864625133
0
LWPOLYLINE
5
124
100
AcDbEntity
8
0
100
AcDbPolyline
90
24
70
1
43
0.0
10
-111.77345647125129
20
77.418099864625049
10
-111.71355647125132
20
77.273099864625095
10
-111.69305647125131
20
77.118099864625066
10
-111.71355647125132
20
76.963099864625065
10
-111.77345647125129
20
76.818099864625054
10
-111.86875647125133
20
76.694099864625059
10
-111.99305647125136
20
76.598099864625084
10
-112.13775647125132
20
76.538099864625082
10
-112.2930564712513
20
76.518099864625086
10
-112.44835647125132
20
76.538099864625082
10
-112.59305647125132
20
76.598099864625084
10
-112.71735647125134
20
76.694099864625059
10
-112.81265647125127
20
76.818099864625054
10
-112.87265647125125
20
76.963099864625065
10
-112.89305647125127
20
77.118099864625066
10
-112.87265647125125
20
77.273099864625095
10
-112.81265647125127
20
77.418099864625049
10
-112.71735647125134
20
77.542099864625044
10
-112.59305647125132
20
77.638099864625062
10
-112.44835647125132
20
77.698099864625064
10
-112.2930564712513
20
77.71809986462506
10
-112.13775647125132
20
77.698099864625064
10
-111.99305647125136
20
77.638099864625062
10
-111.86875647125133
20
77.542099864625044
0
LWPOLYLINE
5
125
100
AcDbEntity
8
0
100
AcDbPolyline
90
24
70
1
43
0.0
10
-122.56875647125121
20
78.432099864625002
10
-122.47345647125118
20
78.308099864625007
10
-122.41355647125118
20
78.163099864625039
10
-122.3930564712512
20
78.008099864625052
10
-122.41355647125118
20
77.853099864625037
10
-122.47345647125118
20
77.708099864625041
10
-122.56875647125121
20
77.584099864625045
10
-122.69305647125121
20
77.488099864624999
10
-122.8377564712512
20
77.428099864625011
10
-122.99305647125118
20
77.408099864625058
10
-123.14835647125116
20
77.428099864625011
10
-123.29305647125118
20
77.488099864624999
10
-123.4173564712512
20
77.584099864625045
10
-123.51265647125118
20
77.708099864625041
10
-123.57265647125118
20
77.853099864625037
10
-123.59305647125119
20
78.008099864625052
10
-123.57265647125118
20
78.163099864625039
10
-123.51265647125118
20
78.308099864625007
10
-123.4173564712512
20
78.432099864625002
10
-123.29305647125118
20
78.528099864625005
10
-123.14835647125116
20
78.58809986462505
10
-122.99305647125118
20
78.608099864625046
10
-122.8377564712512
20
78.58809986462505
10
-122.69305647125121
20
78.528099864625005
0
LWPOLYLINE
5
126
100
AcDbEntity
8
0
100
AcDbPolyline
90
24
70
1
43
0.0
10
-122.41355647125118
20
70.733099864625117
10
-122.47345647125118
20
70.588099864625136
10
-122.56875647125121
20
70.464099864625098
10
-122.69305647125121
20
70.368099864625137
10
-122.8377564712512
20
70.30809986462512
10
-122.99305647125118
20
70.288099864625138
10
-123.1483564712512
20
70.30809986462512
10
-123.29305647125119
20
70.368099864625137
10
-123.4173564712512
20
70.464099864625098
10
-123.51265647125118
20
70.588099864625136
10
-123.57265647125118
20
70.733099864625117
10
-123.59305647125119
20
70.88809986462509
10
-123.57265647125118
20
71.04309986462512
10
-123.51265647125118
20
71.188099864625116
10
-123.4173564712512
20
71.312099864625097
10
-123.29305647125119
20
71.408099864625129
10
-123.1483564712512
20
71.468099864625131
10
-122.99305647125118
20
71.488099864625113
10
-122.8377564712512
20
71.468099864625131
10
-122.69305647125121
20
71.408099864625129
10
-122.56875647125121
20
71.312099864625097
10
-122.47345647125118
20
71.188099864625116
10
-122.41355647125118
20
71.04309986462512
10
-122.3930564712512
20
70.88809986462509
0
LWPOLYLINE
5
127
100
AcDbEntity
8
0
100
AcDbPolyline
90
32
70
1
43
0.0
10
-121.39025647125118
20
81.858099864625046
10
-113.89025647125126
20
81.858099864625046
10
-113.76785647125132
20
81.844099864625065
10
-113.65165647125127
20
81.804099864625016
10
-113.54735647125125
20
81.738099864625042
10
-113.4602564712513
20
81.651099864625053
10
-113.39475647125127
20
81.547099864625054
10
-113.35405647125128
20
81.430099864625049
10
-113.34025647125129
20
81.308099864625063
10
-113.34025647125129
20
65.558099864625177
10
-113.35405647125128
20
65.436099864625163
10
-113.39475647125127
20
65.319099864625173
10
-113.4602564712513
20
65.215099864625131
10
-113.54735647125125
20
65.128099864625156
10
-113.65165647125127
20
65.062099864625168
10
-113.76785647125132
20
65.022099864625119
10
-113.89025647125126
20
65.008099864625152
10
-121.39025647125118
20
65.008099864625152
10
-121.51265647125118
20
65.022099864625119
10
-121.62885647125121
20
65.062099864625168
10
-121.73315647125121
20
65.128099864625156
10
-121.82025647125118
20
65.215099864625131
10
-121.88575647125118
20
65.319099864625159
10
-121.92645647125119
20
65.436099864625163
10
-121.94025647125119
20
65.558099864625177
10
-121.94025647125119
20
81.308099864625063
10
-121.92645647125119
20
81.430099864625049
10
-121.88575647125118
20
81.547099864625054
10
-121.82025647125118
20
81.651099864625039
10
-121.73315647125121
20
81.738099864625042
10
-121.62885647125121
20
81.804099864625016
10
-121.51265647125118
20
81.844099864625065
0
LWPOLYLINE
5
128
100
AcDbEntity
8
0
100
AcDbPolyline
90
24
70
1
43
0.0
10
-123.4173564712512
20
73.092099864625141
10
-123.29305647125119
20
73.188099864625102
10
-123.1483564712512
20
73.24809986462509
10
-122.99305647125118
20
73.268099864625086
10
-122.8377564712512
20
73.24809986462509
10
-122.69305647125121
20
73.188099864625102
10
-122.56875647125121
20
73.092099864625141
10
-122.47345647125118
20
72.968099864625131
10
-122.41355647125118
20
72.823099864625092
10
-122.3930564712512
20
72.66809986462512
10
-122.41355647125118
20
72.51309986462509
10
-122.47345647125118
20
72.368099864625094
10
-122.56875647125121
20
72.244099864625113
10
-122.69305647125121
20
72.148099864625095
10
-122.8377564712512
20
72.088099864625093
10
-122.99305647125118
20
72.06809986462514
10
-123.1483564712512
20
72.088099864625093
10
-123.29305647125119
20
72.148099864625095
10
-123.4173564712512
20
72.244099864625113
10
-123.51265647125118
20
72.368099864625094
10
-123.57265647125118
20
72.51309986462509
10
-123.59305647125119
20
72.66809986462512
10
-123.57265647125118
20
72.823099864625092
10
-123.51265647125118
20
72.968099864625131
0
LWPOLYLINE
5
129
100
AcDbEntity
8
0
100
AcDbPolyline
90
24
70
1
43
0.0
10
-123.57265647125118
20
79.94309986462504
10
-123.51265647125118
20
80.088099864625065
10
-123.4173564712512
20
80.21209986462496
10
-123.29305647125118
20
80.308099864625063
10
-123.14835647125116
20
80.368099864625037
10
-122.99305647125118
20
80.388099864625048
10
-122.8377564712512
20
80.368099864625037
10
-122.69305647125121
20
80.308099864625063
10
-122.56875647125121
20
80.21209986462496
10
-122.47345647125118
20
80.088099864625065
10
-122.41355647125118
20
79.94309986462504
10
-122.3930564712512
20
79.788099864625039
10
-122.41355647125118
20
79.633099864625024
10
-122.47345647125118
20
79.488099864625042
10
-122.56875647125121
20
79.364099864625018
10
-122.69305647125121
20
79.268099864625043
10
-122.8377564712512
20
79.208099864625041
10
-122.99305647125118
20
79.188099864625045
10
-123.14835647125116
20
79.208099864625041
10
-123.29305647125118
20
79.268099864625043
10
-123.4173564712512
20
79.364099864625018
10
-123.51265647125118
20
79.488099864625042
10
-123.57265647125118
20
79.633099864625024
10
-123.59305647125119
20
79.788099864625039
0
LWPOLYLINE
5
130
100
AcDbEntity
8
0
100
AcDbPolyline
90
24
70
1
43
0.0
10
-111.86875647125133
20
75.7620998646251
10
-111.77345647125129
20
75.638099864625076
10
-111.71355647125132
20
75.493099864625123
10
-111.69305647125131
20
75.338099864625093
10
-111.71355647125132
20
75.183099864625078
10
-111.77345647125129
20
75.038099864625082
10
-111.86875647125133
20
74.914099864625086
10
-111.99305647125136
20
74.818099864625097
10
-112.13775647125132
20
74.758099864625095
10
-112.2930564712513
20
74.738099864625099
10
-112.44835647125132
20
74.758099864625095
10
-112.59305647125132
20
74.818099864625097
10
-112.71735647125134
20
74.914099864625086
10
-112.81265647125127
20
75.038099864625082
10
-112.87265647125125
20
75.183099864625078
10
-112.89305647125127
20
75.338099864625093
10
-112.87265647125125
20
75.493099864625123
10
-112.81265647125127
20
75.638099864625076
10
-112.71735647125134
20
75.7620998646251
10
-112.59305647125132
20
75.858099864625046
10
-112.44835647125132
20
75.918099864625049
10
-112.2930564712513
20
75.938099864625059
10
-112.13775647125132
20
75.918099864625049
10
-111.99305647125136
20
75.858099864625046
0
LWPOLYLINE
5
131
100
AcDbEntity
8
0
100
AcDbPolyline
90
24
70
1
43
0.0
10
-112.13775647125132
20
68.798099864625172
10
-111.99305647125136
20
68.738099864625127
10
-111.86875647125133
20
68.642099864625195
10
-111.77345647125129
20
68.518099864625185
10
-111.71355647125132
20
68.373099864625161
10
-111.69305647125131
20
68.218099864625174
10
-111.71355647125132
20
68.063099864625173
10
-111.77345647125129
20
67.918099864625177
10
-111.86875647125133
20
67.794099864625124
10
-111.99305647125136
20
67.698099864625178
10
-112.13775647125132
20
67.638099864625133
10
-112.2930564712513
20
67.618099864625179
10
-112.44835647125132
20
67.638099864625133
10
-112.59305647125132
20
67.698099864625178
10
-112.71735647125134
20
67.794099864625124
10
-112.81265647125127
20
67.918099864625177
10
-112.87265647125125
20
68.063099864625173
10
-112.89305647125127
20
68.218099864625174
10
-112.87265647125125
20
68.373099864625161
10
-112.81265647125127
20
68.518099864625185
10
-112.71735647125134
20
68.642099864625195
10
-112.59305647125132
20
68.738099864625127
10
-112.44835647125132
20
68.798099864625172
10
-112.2930564712513
20
68.818099864625154
0
LWPOLYLINE
5
132
100
AcDbEntity
8
0
100
AcDbPolyline
90
2
70
1
43
0.0
10
-113.26095753489774
20
89.488314259065177
10
-113.17999999999998
20
89.487500000000011
42
-0.0050287998176624495
0
LWPOLYLINE
5
133
100
AcDbEntity
8
0
100
AcDbPolyline
90
8
70
1
43
0.0
10
-40.199763136862003
20
85.43807905220018
10
-43.344747136862011
20
72.824235052200166
42
-0.41421356237310131
10
-43.950855947799838
20
72.460048136862
10
-56.564700947799842
20
75.605032136862008
42
-0.41421356237310508
10
-56.928887863138009
20
76.211140947799848
10
-53.783902863138017
20
88.82498594779986
42
-0.41421356237309881
10
-53.17779405220017
20
89.189172863138012
10
-40.56395005220017
20
86.044187863138006
42
-0.41421356237309126
0
LWPOLYLINE
5
134
100
AcDbEntity
8
0
100
AcDbPolyline
90
8
70
1
43
0.0
10
-181.85153613686202
20
88.974040947799836
10
-178.70655213686203
20
76.360195947799838
42
-0.41421356237309126
10
-179.07073905220017
20
75.754087136861997
10
-191.68458305220017
20
72.609103136862018
42
-0.41421356237309381
10
-192.29069186313802
20
72.973290052200156
10
-195.43567686313804
20
85.587134052200184
42
-0.41421356237308737
10
-195.07148994779988
20
86.193242863138011
10
-182.45764494779985
20
89.338227863137988
42
-0.41421356237310264
0
LWPOLYLINE
5
135
100
AcDbEntity
8
0
100
AcDbPolyline
90
8
70
1
43
0.0
10
-71.357579136862
20
39.215323052200162
10
-74.502563136862008
20
26.601479052200169
42
-0.41421356237309509
10
-75.108671947799849
20
26.237292136862006
10
-87.722516947799846
20
29.382276136861996
42
-0.41421356237309881
10
-88.086703863138013
20
29.988384947799837
10
-84.941718863137993
20
42.602229947799835
42
-0.41421356237309759
10
-84.335610052200167
20
42.966416863137994
10
-71.721766052200167
20
39.821431863137995
42
-0.41421356237310131
0
LWPOLYLINE
5
136
100
AcDbEntity
8
0
100
AcDbPolyline
90
8
70
1
43
0.0
10
-66.748968136862004
20
57.699458052200157
10
-69.89395313686201
20
45.085614052200171
42
-0.41421356237310508
10
-70.50006194779985
20
44.721427136862005
10
-83.113905947799822
20
47.866411136862013
42
-0.41421356237308621
10
-83.478092863138016
20
48.472519947799825
10
-80.333108863138008
20
61.086364947799851
42
-0.41421356237310014
10
-79.727000052200168
20
61.45055186313801
10
-67.11315505220017
20
58.30556686313799
42
-0.41421356237310508
0
LWPOLYLINE
5
137
100
AcDbEntity
8
0
100
AcDbPolyline
90
8
70
1
43
0.0
10
-134.51389213686198
20
56.601963947799838
10
-131.36890813686205
20
43.988119947799831
42
-0.41421356237308621
10
-131.73309505220021
20
43.382011136862005
10
-144.34693905220018
20
40.237026136861999
42
-0.41421356237309626
10
-144.95304786313801
20
40.60121305220018
10
-148.09803286313803
20
53.215058052200163
42
-0.41421356237309881
10
-147.73384594779984
20
53.821166863137996
10
-135.12000094779981
20
56.966150863137997
42
-0.41421356237308493
0
LWPOLYLINE
5
138
100
AcDbEntity
8
0
100
AcDbPolyline
90
8
70
1
43
0.0
10
-62.14035613686201
20
76.183591052200171
10
-65.285341136862016
20
63.569747052200157
42
-0.41421356237310131
10
-65.891449947799842
20
63.205560136861997
10
-78.505293947799842
20
66.350544136862013
42
-0.41421356237310508
10
-78.869480863137994
20
66.956652947799839
10
-75.724496863138
20
79.570497947799851
42
-0.41421356237309509
10
-75.118388052200174
20
79.934684863138003
10
-62.504543052200177
20
76.789699863137997
42
-0.41421356237309509
0
LWPOLYLINE
5
139
100
AcDbEntity
8
0
100
AcDbPolyline
90
8
70
1
43
0.0
10
-9.5683381368620033
20
50.805172052200163
10
-12.713322136862002
20
38.191327052200165
42
-0.41421356237309065
10
-13.319430947799836
20
37.827140136862006
10
-25.933275947799835
20
40.972125136862005
42
-0.41421356237309509
10
-26.297462863137998
20
41.578233947799831
10
-23.152477863137996
20
54.192077947799845
42
-0.41421356237310325
10
-22.546369052200163
20
54.556264863138004
10
-9.9325250522001625
20
51.411280863138003
42
-0.41421356237310197
0
LWPOLYLINE
5
140
100
AcDbEntity
8
0
100
AcDbPolyline
90
8
70
1
43
0.0
10
-121.58750000000001
20
106.51250000000002
10
-121.58750000000001
20
93.512500000000003
42
-0.41421356237309509
10
-122.08750000000002
20
93.012499999999989
10
-135.08750000000001
20
93.012499999999989
42
-0.41421356237307427
10
-135.58750000000001
20
93.512500000000003
10
-135.58750000000001
20
106.51250000000002
42
-0.41421356237309509
10
-135.08750000000001
20
107.01250000000002
10
-122.08750000000002
20
107.01250000000002
42
-0.41421356237309509
0
LWPOLYLINE
5
141
100
AcDbEntity
8
0
100
AcDbPolyline
90
8
70
1
43
0.0
10
-212.50600613686203
20
54.433553947799844
10
-209.36102113686204
20
41.819709947799836
42
-0.41421356237306223
10
-209.72520805220017
20
41.213601136862003
10
-222.33905305220017
20
38.068616136862012
42
-0.41421356237309881
10
-222.945161863138
20
38.432803052200171
10
-226.09014586313802
20
51.046648052200176
42
-0.41421356237309126
10
-225.72595894779988
20
51.652756863138009
10
-213.11211494779985
20
54.797740863137996
42
-0.41421356237309881
0
LWPOLYLINE
5
142
100
AcDbEntity
8
0
100
AcDbPolyline
90
8
70
1
43
0.0
10
-207.89739413686203
20
35.949418947799842
10
-204.75240913686204
20
23.335574947799834
42
-0.41421356237309065
10
-205.11659605220018
20
22.729466136862008
10
-217.73044005220015
20
19.58448113686201
42
-0.41421356237309881
10
-218.33654886313798
20
19.948668052200166
10
-221.481533863138
20
32.56251305220016
42
-0.41421356237305973
10
-221.11734694779986
20
33.168621863137993
10
-208.50350294779986
20
36.313605863137973
42
-0.41421356237307982
0
LWPOLYLINE
5
143
100
AcDbEntity
8
0
100
AcDbPolyline
90
8
70
1
43
0.0
10
-54.025599136861999
20
29.985678052200168
10
-57.170584136861997
20
17.371834052200168
42
-0.41421356237309637
10
-57.77669294779983
20
17.007647136862005
10
-70.390536947799831
20
20.152631136862006
42
-0.41421356237309509
10
-70.754723863137997
20
20.758739947799839
10
-67.609739863138017
20
33.372584947799837
42
-0.41421356237310197
10
-67.003631052200177
20
33.736771863137996
10
-54.389786052200158
20
30.591786863138001
42
-0.41421356237310325
0
LWPOLYLINE
5
144
100
AcDbEntity
8
0
100
AcDbPolyline
90
8
70
1
43
0.0
10
-155.30233213686202
20
61.235419947799834
10
-152.157348136862
20
48.621574947799829
42
-0.41421356237308621
10
-152.52153505220016
20
48.015466136862003
10
-165.13537905220016
20
44.870482136862009
42
-0.41421356237309381
10
-165.74148786313799
20
45.234669052200154
10
-168.88647286313801
20
57.848513052200168
42
-0.41421356237309126
10
-168.52228594779987
20
58.454621863138001
10
-155.90844094779985
20
61.599606863137993
42
-0.41421356237308493
0
LWPOLYLINE
5
145
100
AcDbEntity
8
0
100
AcDbPolyline
90
8
70
1
43
0.0
10
-139.122505136862
20
75.086096947799831
10
-135.97752013686201
20
62.472252947799831
42
-0.41421356237308621
10
-136.34170705220018
20
61.866144136862005
10
-148.95555105220018
20
58.721159136862006
42
-0.41421356237308493
10
-149.56165986313803
20
59.085346052200165
10
-152.70664486313802
20
71.699191052200177
42
-0.41421356237309881
10
-152.34245794779983
20
72.305299863138004
10
-139.72861394779983
20
75.450283863137997
42
-0.41421356237308493
0
LWPOLYLINE
5
146
100
AcDbEntity
8
0
100
AcDbPolyline
90
8
70
1
43
0.0
10
-187.66198613686203
20
33.534061947799835
10
-184.517002136862
20
20.920217947799834
42
-0.41421356237309065
10
-184.88118905220017
20
20.314109136862008
10
-197.49503305220017
20
17.169124136862013
42
-0.41421356237309881
10
-198.101141863138
20
17.533311052200165
10
-201.24612686313799
20
30.147155052200162
42
-0.41421356237308682
10
-200.88193994779985
20
30.753263863137995
10
-188.26809494779985
20
33.898248863137965
42
-0.41421356237307982
0
LWPOLYLINE
5
147
100
AcDbEntity
8
0
100
AcDbPolyline
90
8
70
1
43
0.0
10
-150.693720136862
20
42.751285947799843
10
-147.548736136862
20
30.137441947799832
42
-0.41421356237309881
10
-147.9129230522002
20
29.531333136862003
10
-160.52676705220017
20
26.386348136862011
42
-0.41421356237309881
10
-161.132875863138
20
26.750535052200167
10
-164.27786086313799
20
39.364380052200161
42
-0.41421356237308682
10
-163.91367394779985
20
39.970488863137994
10
-151.29982894779982
20
43.11547286313801
42
-0.41421356237311774
0
LWPOLYLINE
5
148
100
AcDbEntity
8
0
100
AcDbPolyline
90
8
70
1
43
0.0
10
-143.731117136862
20
93.570231947799826
10
-140.58613213686201
20
80.95638794779984
42
-0.41421356237307483
10
-140.9503190522002
20
80.350279136862
10
-153.56416405220017
20
77.205294136861994
42
-0.41421356237312285
10
-154.17027286313802
20
77.569481052200175
10
-157.31525686313805
20
90.183326052200172
42
-0.41421356237309509
10
-156.95106994779985
20
90.789434863138013
10
-144.33722594779982
20
93.934418863138006
42
-0.41421356237306223
0
LWPOLYLINE
5
149
100
AcDbEntity
8
0
100
AcDbPolyline
90
8
70
1
43
0.0
10
-99.680000000000007
20
106.51250000000002
10
-99.680000000000007
20
93.512500000000003
42
-0.41421356237309509
10
-100.18000000000001
20
93.012499999999989
10
-113.18000000000001
20
93.012500000193214
42
-0.41421356225708234
10
-113.68000000000002
20
93.512500000000003
10
-113.68000000000002
20
106.51250000000002
42
-0.41421356237309509
10
-113.18000000000001
20
107.01250000000002
10
-100.18000000000001
20
107.01250000000002
42
-0.41421356237309509
0
LWPOLYLINE
5
150
100
AcDbEntity
8
0
100
AcDbPolyline
90
8
70
1
43
0.0
10
-168.02570013686204
20
33.521639947799834
10
-164.88071513686202
20
20.907794947799836
42
-0.41421356237309065
10
-165.24490205220016
20
20.301686136862006
10
-177.85874705220016
20
17.156702136862016
42
-0.41421356237309881
10
-178.46485586313801
20
17.520889052200168
10
-181.60983986313798
20
30.134733052200161
42
-0.41421356237308682
10
-181.24565294779984
20
30.740841863137994
10
-168.63180894779987
20
33.885826863137964
42
-0.41421356237307982
0
LWPOLYLINE
5
151
100
AcDbEntity
8
0
100
AcDbPolyline
90
8
70
1
43
0.0
10
-4.9597261368620016
20
69.289305052200177
10
-8.1047101368620016
20
56.675460052200165
42
-0.41421356237310314
10
-8.7108189477998348
20
56.311273136861999
10
-21.324663947799838
20
59.456258136862004
42
-0.41421356237310197
10
-21.688850863138001
20
60.062366947799852
10
-18.543865863137999
20
72.676210947799845
42
-0.4142135623730937
10
-17.937757052200169
20
73.040397863137997
10
-5.3239130522001643
20
69.895413863138003
42
-0.41421356237309509
0
LWPOLYLINE
5
152
100
AcDbEntity
8
0
100
AcDbPolyline
90
8
70
1
43
0.0
10
-172.63431213686204
20
52.005774947799843
10
-169.48932713686204
20
39.391929947799838
42
-0.41421356237305973
10
-169.85351405220018
20
38.785821136862012
10
-182.46735905220015
20
35.640837136862032
42
-0.41421356237307982
10
-183.07346786313798
20
36.00502405220017
10
-186.218451863138
20
48.61886805220017
42
-0.41421356237306223
10
-185.85426494779983
20
49.224976863138004
10
-173.24042094779986
20
52.369961863137995
42
-0.41421356237309881
0
LWPOLYLINE
5
153
100
AcDbEntity
8
0
100
AcDbPolyline
90
8
70
1
43
0.0
10
-159.91094313686199
20
79.719552947799855
10
-156.76595813686203
20
67.105707947799829
42
-0.41421356237308621
10
-157.13014505220019
20
66.499599136862003
10
-169.74399005220016
20
63.354615136862044
42
-0.41421356237306861
10
-170.35009886313799
20
63.718802052200161
10
-173.49508286313801
20
76.332646052200161
42
-0.41421356237309126
10
-173.13089594779984
20
76.938754863137987
10
-160.51705194779984
20
80.083739863138021
42
-0.41421356237310131
0
LWPOLYLINE
5
154
100
AcDbEntity
8
0
100
AcDbPolyline
90
8
70
1
43
0.0
10
-196.87921113686204
20
70.502327947799841
10
-193.73422613686202
20
57.888483947799834
42
-0.41421356237306223
10
-194.09841305220016
20
57.282375136862001
10
-206.71225805220016
20
54.13739013686201
42
-0.41421356237309381
10
-207.31836686313798
20
54.501577052200155
10
-210.463350863138
20
67.115422052200159
42
-0.41421356237309126
10
-210.09916394779987
20
67.721530863137986
10
-197.48531994779989
20
70.866514863137994
42
-0.41421356237309881
0
LWPOLYLINE
5
155
100
AcDbEntity
8
0
100
AcDbPolyline
90
8
70
1
43
0.0
10
-192.27059913686202
20
52.018194947799842
10
-189.12561413686208
20
39.404350947799841
42
-0.41421356237306162
10
-189.48980105220019
20
38.798242136862015
10
-202.10364505220016
20
35.65325713686201
42
-0.41421356237309881
10
-202.70975386313802
20
36.017444052200169
10
-205.85473886313798
20
48.631289052200167
42
-0.41421356237306223
10
-205.49055194779984
20
49.237397863138
10
-192.87670794779984
20
52.382381863137972
42
-0.41421356237307361
0
LWPOLYLINE
5
156
100
AcDbEntity
8
0
100
AcDbPolyline
90
8
70
1
43
0.0
10
-29.780700136862002
20
48.48223405220017
10
-32.925685136862
20
35.868389052200172
42
-0.41421356237308871
10
-33.531793947799841
20
35.504202136862006
10
-46.145637947799841
20
38.649187136862004
42
-0.41421356237310131
10
-46.509824863138007
20
39.255295947799837
10
-43.364840863137985
20
51.869139947799844
42
-0.41421356237310131
10
-42.758732052200159
20
52.233326863138004
10
-30.144887052200168
20
49.088342863137996
42
-0.41421356237309814
0
LWPOLYLINE
5
157
100
AcDbEntity
8
0
100
AcDbPolyline
90
8
70
1
43
0.0
10
-25.172088136862001
20
66.966367052200169
10
-28.317073136862007
20
54.352522052200165
42
-0.41421356237310325
10
-28.92318194779984
20
53.988335136861998
10
-41.537025947799847
20
57.133320136862011
42
-0.41421356237310508
10
-41.901212863138007
20
57.739428947799844
10
-38.756228863137999
20
70.353272947799837
42
-0.41421356237309509
10
-38.150120052200165
20
70.717459863137989
10
-25.536275052200168
20
67.572475863137996
42
-0.41421356237309509
0
LWPOLYLINE
5
158
100
AcDbEntity
8
0
100
AcDbPolyline
90
8
70
1
43
0.0
10
-44.808375136862004
20
66.953946052200166
10
-47.953359136862012
20
54.340102052200166
42
-0.41421356237310508
10
-48.559467947799845
20
53.975915136862007
10
-61.173312947799836
20
57.120899136862
42
-0.41421356237310508
10
-61.537499863137995
20
57.727007947799834
10
-58.392514863137997
20
70.340852947799831
42
-0.41421356237310508
10
-57.786406052200164
20
70.705039863137998
10
-45.172562052200163
20
67.560054863137992
42
-0.41421356237310131
0
LWPOLYLINE
5
159
100
AcDbEntity
8
0
100
AcDbPolyline
90
8
70
1
43
0.0
10
-49.416987136861998
20
48.469811052200164
10
-52.561972136861996
20
35.855967052200171
42
-0.41421356237309509
10
-53.16808094779983
20
35.491780136862005
10
-65.781924947799851
20
38.636764136862013
42
-0.41421356237310131
10
-66.146111863138003
20
39.242872947799839
10
-63.001126863137998
20
51.856717947799844
42
-0.41421356237310508
10
-62.395018052200165
20
52.220904863138003
10
-49.781174052200157
20
49.075919863137997
42
-0.41421356237310508
0
LWPOLYLINE
5
160
100
AcDbEntity
8
0
100
AcDbPolyline
90
8
70
1
43
0.0
10
-87.537407136862001
20
53.066003052200166
10
-90.682391136862009
20
40.452158052200168
42
-0.41421356237309126
10
-91.288499947799835
20
40.087971136862002
10
-103.90234494779986
20
43.232956136861993
42
-0.41421356237309881
10
-104.26653186313801
20
43.839064947799841
10
-101.12154686313798
20
56.452908947799827
42
-0.41421356237310386
10
-100.51543805220018
20
56.817095863138
10
-87.901594052200181
20
53.672111863138014
42
-0.41421356237311524
0
LWPOLYLINE
5
161
100
AcDbEntity
8
0
100
AcDbPolyline
90
8
70
1
43
0.0
10
-78.320182136862002
20
90.034269052200173
10
-81.465167136862036
20
77.420425052200187
42
-0.41421356237310386
10
-82.071275947799833
20
77.056238136862007
10
-94.685119947799848
20
80.201222136862
42
-0.41421356237307483
10
-95.049306863138014
20
80.807330947799841
10
-91.904322863138006
20
93.421175947799838
42
-0.41421356237306223
10
-91.298214052200166
20
93.785362863138019
10
-78.684369052200168
20
90.640377863138013
42
-0.41421356237309126
0
LWPOLYLINE
5
162
100
AcDbEntity
8
0
100
AcDbPolyline
90
8
70
1
43
0.0
10
-14.176950136862004
20
32.321037052200168
10
-17.321935136862002
20
19.70719205220017
42
-0.41421356237309509
10
-17.928043947799832
20
19.343005136862004
10
-30.54188794779984
20
22.487990136862003
42
-0.41421356237309509
10
-30.906074863138002
20
23.094098947799836
10
-27.761089863138004
20
35.707942947799836
42
-0.41421356237309193
10
-27.154981052200164
20
36.072129863138002
10
-14.541137052200169
20
32.927145863138001
42
-0.41421356237309315
0
LWPOLYLINE
5
163
100
AcDbEntity
8
0
100
AcDbPolyline
90
8
70
1
43
0.0
10
-177.242924136862
20
70.489907947799836
10
-174.09794013686198
20
57.876062947799838
42
-0.41421356237309126
10
-174.46212705220012
20
57.269954136862005
10
-187.07597105220017
20
54.124970136862053
42
-0.41421356237306861
10
-187.682079863138
20
54.48915705220017
10
-190.82706486313799
20
67.10300105220017
42
-0.41421356237309126
10
-190.46287794779985
20
67.709109863137996
10
-177.84903294779983
20
70.854094863137988
42
-0.41421356237309881
0
LWPOLYLINE
5
164
100
AcDbEntity
8
0
100
AcDbPolyline
90
8
70
1
43
0.0
10
-34.389312136862003
20
29.99809905220016
10
-37.534297136862008
20
17.384254052200166
42
-0.41421356237309637
10
-38.140405947799842
20
17.020067136862004
10
-50.754249947799849
20
20.165052136862002
42
-0.41421356237309509
10
-51.118436863138008
20
20.771160947799835
10
-47.973452863137993
20
33.385004947799835
42
-0.41421356237309509
10
-47.36734405220016
20
33.749191863137995
10
-34.753499052200169
20
30.604207863137994
42
-0.41421356237308998
0
LWPOLYLINE
5
165
100
AcDbEntity
8
0
100
AcDbPolyline
90
8
70
1
43
0.0
10
-217.11461613686203
20
72.917686947799851
10
-213.969632136862
20
60.303842947799836
42
-0.41421356237306223
10
-214.33381905220014
20
59.697734136861996
10
-226.9476630522002
20
56.552749136862033
42
-0.41421356237306861
10
-227.55377186313805
20
56.916936052200157
10
-230.69875686313799
20
69.530781052200169
42
-0.41421356237309126
10
-230.33456994779985
20
70.136889863137995
10
-217.72072494779988
20
73.281873863138003
42
-0.41421356237309881
0
LWPOLYLINE
5
166
100
AcDbEntity
8
0
100
AcDbPolyline
90
8
70
1
43
0.0
10
-82.92879413686201
20
71.550136052200173
10
-86.073779136862044
20
58.936291052200183
42
-0.41421356237310386
10
-86.679887947799841
20
58.572104136862009
10
-99.293731947799827
20
61.717089136861993
42
-0.41421356237311524
10
-99.657918863138008
20
62.323197947799834
10
-96.512934863138028
20
74.937041947799855
42
-0.41421356237309126
10
-95.906826052200188
20
75.301228863138022
10
-83.29298105220019
20
72.156244863137999
42
-0.41421356237309126
0
ENDSEC
0
SECTION
2
OBJECTS
0
DICTIONARY
5
C
100
AcDbDictionary
3
ACAD_GROUP
350
D
3
ACAD_MLINESTYLE
350
17
0
DICTIONARY
5
D
100
AcDbDictionary
0
DICTIONARY
5
1A
330
C
100
AcDbDictionary
0
DICTIONARY
5
17
100
AcDbDictionary
0
ENDSEC
0
EOF
